# xmcd
#
# Track frame offsets:
#	150
#	13644
#	24921
#	36092
#	51732
#	68077
#	79446
#	89704
#	106672
#	120041
#	132499
#	148729
#
# Disc length: 2139 seconds
#
# Revision: 1
# Processed by: cddbd v1.5.2PL0 Copyright (c) Steve Scherf et al.
# Submitted via: audiograbber 1.83.01
#
DISCID=a108590c
DTITLE=Buddy Williams - Headin' For The Warrick Rodeo
DYEAR=1979
DGENRE=Country
TTITLE0=Headin' For The Warrick Rodeo
TTITLE1=The Shearer's Goodbye
TTITLE2=The Maple On The Hill
TTITLE3=I'll Be Back, Never Fear
TTITLE4=The Dying Soldiers Prayer
TTITLE5=Happy Cowboys
TTITLE6=I've Morgaged The Farm Again
TTITLE7=The Old Sundowner
TTITLE8=My Sunny Southern Home
TTITLE9=There's An Empty Bed In Buckhouse
TTITLE10=Under The Old Wattle Tree
TTITLE11=Away Out On The Plain
EXTD=
EXTT0=
EXTT1=
EXTT2=
EXTT3=
EXTT4=
EXTT5=
EXTT6=
EXTT7=
EXTT8=
EXTT9=
EXTT10=
EXTT11=
PLAYORDER=
